<?xml version="1.0" encoding="UTF-8"?>
<svg id="Capa_2" data-name="Capa 2" xmlns="http://www.w3.org/2000/svg" xmlns:xlink="http://www.w3.org/1999/xlink" viewBox="0 0 22.99 22.99">
  <defs>
    <style>
      .cls-1, .cls-2 {
        fill: #25d366;
      }

      .cls-3 {
        fill: #fff;
        fill-rule: evenodd;
      }

      .cls-3, .cls-2 {
        stroke-width: 0px;
      }

      .cls-4 {
        clip-path: url(#clippath);
      }
    </style>
    <clipPath id="clippath">
      <circle class="cls-2" cx="11.49" cy="11.49" r="11.49"/>
    </clipPath>
  </defs>
  <g id="Capa_1-2" data-name="Capa 1">
    <g>
      <circle class="cls-1" cx="11.49" cy="11.49" r="11.49"/>
      <g class="cls-4">
        <path class="cls-3" d="m12.1,2.25c2.18.01,4.28.86,5.85,2.37,1.61,1.54,2.54,3.61,2.62,5.84.08,2.18-.68,4.31-2.12,5.94-1.58,1.79-3.78,2.82-6.15,2.89h-.24c-1.28,0-2.55-.28-3.7-.84l-4.46.99s0,0-.01,0c-.04,0-.07-.04-.07-.07l.75-4.51c-.64-1.18-1-2.5-1.04-3.85-.07-2.27.76-4.44,2.32-6.09,1.62-1.72,3.83-2.67,6.2-2.67h.04Zm-.05,1.48c-.07,0-.14,0-.2,0-3.88.11-6.95,3.36-6.84,7.24.04,1.19.37,2.35.96,3.37l.13.22-.56,3.06,3.03-.71.23.12c1,.52,2.12.79,3.25.79.07,0,.13,0,.2,0,3.88-.11,6.95-3.36,6.84-7.24-.11-3.81-3.25-6.84-7.04-6.84h0Zm-2.95,2.93c.14,0,.29,0,.41.02.15.01.32.02.47.39.18.43.56,1.5.61,1.61.05.11.08.23,0,.38-.07.14-.11.23-.23.35-.11.12-.23.27-.33.37-.11.1-.22.21-.11.43.12.22.52.93,1.15,1.52.79.75,1.43,1,1.68,1.12.09.04.17.06.23.06.09,0,.16-.04.23-.11.13-.14.53-.6.7-.82.09-.11.17-.15.25-.15.07,0,.14.02.23.06.19.08,1.23.63,1.44.74.21.11.35.17.4.26.05.09.04.52-.16,1.01-.19.5-1.08.95-1.47.97-.12,0-.23.02-.38.02-.36,0-.91-.09-2.18-.64-2.15-.93-3.45-3.2-3.55-3.34-.1-.14-.84-1.19-.8-2.24.03-1.05.6-1.55.8-1.76.19-.2.41-.25.56-.25h.02Z"/>
      </g>
    </g>
  </g>
</svg>